<svg width="104" height="80" viewBox="0 0 104 80" fill="none" xmlns="http://www.w3.org/2000/svg">
<rect width="104" height="80" rx="16" fill="#EC6608"/>
<path d="M49.3618 62.1905L50.6526 62.9546L49.3618 62.1905ZM49.9671 61.1678L48.6763 60.4038L49.9671 61.1678ZM44.6995 61.1678L45.9903 60.4038L45.9903 60.4037L44.6995 61.1678ZM45.3049 62.1905L44.014 62.9546L45.3049 62.1905ZM27.1667 41.8667C27.1667 42.6952 27.8383 43.3667 28.6667 43.3667C29.4951 43.3667 30.1667 42.6952 30.1667 41.8667H27.1667ZM30.763 51.3978C30.4459 50.6324 29.5685 50.269 28.8031 50.586C28.0378 50.903 27.6743 51.7805 27.9913 52.5458L30.763 51.3978ZM38.6751 57.6983L38.723 56.1991H38.723L38.6751 57.6983ZM34.4283 57.023L33.8543 58.4088L33.8543 58.4088L34.4283 57.023ZM65.2896 51.9718L66.6754 52.5458L65.2896 51.9718ZM55.9916 57.6983L55.9436 56.1991L55.9916 57.6983ZM60.2384 57.023L60.8124 58.4088L60.2384 57.023ZM33.1234 27.3754L32.3396 26.0964V26.0964L33.1234 27.3754ZM30.042 30.4567L28.7631 29.673L28.7631 29.673L30.042 30.4567ZM42.4716 58.2521L41.7079 59.5432L42.4716 58.2521ZM58.6969 27.8877C59.5082 28.0551 60.3016 27.5331 60.4691 26.7218C60.6365 25.9104 60.1145 25.117 59.3032 24.9496L58.6969 27.8877ZM67.0504 32.6968C66.883 31.8855 66.0896 31.3635 65.2782 31.531C64.4669 31.6984 63.9449 32.4918 64.1124 33.3032L67.0504 32.6968ZM50.6526 62.9546L51.258 61.9318L48.6763 60.4038L48.0709 61.4265L50.6526 62.9546ZM43.4087 61.9318L44.014 62.9546L46.5957 61.4265L45.9903 60.4038L43.4087 61.9318ZM48.0709 61.4265C47.7499 61.969 46.9168 61.969 46.5957 61.4265L44.014 62.9546C45.4968 65.4596 49.1699 65.4596 50.6526 62.9546L48.0709 61.4265ZM44.5334 27.5H50.1334V24.5H44.5334V27.5ZM64.5 41.8667V43.7334H67.5V41.8667H64.5ZM38.723 56.1991C36.8685 56.1398 35.8259 55.9783 35.0023 55.6372L33.8543 58.4088C35.2032 58.9676 36.7013 59.136 38.6271 59.1976L38.723 56.1991ZM27.9913 52.5458C29.0908 55.2003 31.1998 57.3093 33.8543 58.4088L35.0023 55.6372C33.083 54.8421 31.558 53.3172 30.763 51.3978L27.9913 52.5458ZM64.5 43.7334C64.5 45.9283 64.4992 47.4994 64.4147 48.7381C64.3311 49.9633 64.1707 50.7534 63.9037 51.3978L66.6754 52.5458C67.1189 51.475 67.3137 50.3203 67.4077 48.9423C67.5008 47.5778 67.5 45.8873 67.5 43.7334H64.5ZM56.0395 59.1976C57.9653 59.136 59.4635 58.9676 60.8124 58.4088L59.6644 55.6372C58.8408 55.9783 57.7982 56.1398 55.9436 56.1991L56.0395 59.1976ZM63.9037 51.3978C63.1087 53.3172 61.5838 54.8421 59.6644 55.6372L60.8124 58.4088C63.4669 57.3093 65.5759 55.2003 66.6754 52.5458L63.9037 51.3978ZM44.5334 24.5C41.5072 24.5 39.1322 24.4984 37.2366 24.6787C35.3187 24.861 33.7371 25.24 32.3396 26.0964L33.9071 28.6543C34.754 28.1353 35.8222 27.8267 37.5206 27.6652C39.2413 27.5016 41.4491 27.5 44.5334 27.5V24.5ZM30.1667 41.8667C30.1667 38.7825 30.1683 36.5746 30.3319 34.8539C30.4934 33.1556 30.802 32.0873 31.321 31.2404L28.7631 29.673C27.9067 31.0704 27.5277 32.652 27.3453 34.57C27.1651 36.4656 27.1667 38.8406 27.1667 41.8667H30.1667ZM32.3396 26.0964C30.8819 26.9897 29.6564 28.2153 28.7631 29.673L31.321 31.2404C31.9669 30.1864 32.8531 29.3002 33.9071 28.6543L32.3396 26.0964ZM45.9903 60.4037C45.5194 59.6082 45.1152 58.9222 44.7251 58.3852C44.3173 57.8236 43.8606 57.331 43.2352 56.9611L41.7079 59.5432C41.8553 59.6304 42.0275 59.776 42.2979 60.1482C42.586 60.545 42.9094 61.0884 43.4087 61.9318L45.9903 60.4037ZM38.6271 59.1976C39.662 59.2307 40.3395 59.2537 40.8579 59.317C41.3526 59.3773 41.5697 59.4614 41.7079 59.5432L43.2352 56.9611C42.6007 56.5857 41.9274 56.4252 41.2211 56.339C40.5384 56.2558 39.704 56.2305 38.723 56.1991L38.6271 59.1976ZM51.2579 61.9318C51.7572 61.0884 52.0806 60.545 52.3688 60.1482C52.6392 59.776 52.8114 59.6304 52.9588 59.5432L51.4314 56.9611C50.8061 57.331 50.3494 57.8236 49.9415 58.3852C49.5514 58.9222 49.1472 59.6082 48.6763 60.4038L51.2579 61.9318ZM55.9436 56.1991C54.9626 56.2305 54.1282 56.2558 53.4455 56.339C52.7392 56.4252 52.0659 56.5857 51.4314 56.9611L52.9588 59.5432C53.0969 59.4614 53.314 59.3773 53.8088 59.317C54.3272 59.2537 55.0046 59.2307 56.0395 59.1976L55.9436 56.1991ZM50.1334 27.5C54.3161 27.5 56.8557 27.5077 58.6969 27.8877L59.3032 24.9496C57.0873 24.4923 54.1711 24.5 50.1334 24.5V27.5ZM67.5 41.8667C67.5 37.8289 67.5077 34.9128 67.0504 32.6968L64.1124 33.3032C64.4923 35.1443 64.5 37.6839 64.5 41.8667H67.5Z" fill="white"/>
<path d="M40.4108 26C40.5312 23.685 40.8385 22.1244 41.6226 20.8448C42.3441 19.6675 43.334 18.6776 44.5114 17.9561C46.6155 16.6667 49.4797 16.6667 55.2082 16.6667H60.4582C64.0238 16.6667 66.4797 16.6667 68.3334 16.9776M66 46.3822C67.7447 46.3242 68.9229 46.1686 69.9317 45.7507C72.0757 44.8627 73.7791 43.1593 74.6672 41.0153C75.3332 39.4072 75.3332 37.3687 75.3332 33.2917V31.5417C75.3332 27.9762 75.3332 25.5203 75.0223 23.6667" stroke="white" stroke-width="3" stroke-linecap="round"/>
<path d="M39.1883 42.3333H39.2093M47.3333 42.3333H47.3543M55.479 42.3333H55.5" stroke="#FDFDFD" stroke-width="6" stroke-linecap="round" stroke-linejoin="round"/>
</svg>
