<svg width="69" height="60" viewBox="0 0 69 60" fill="none" xmlns="http://www.w3.org/2000/svg">
<path fill-rule="evenodd" clip-rule="evenodd" d="M41.5386 9.25C40.1896 9.25 38.9475 9.58525 37.5874 10.1477C36.2742 10.6908 34.7489 11.4913 32.8496 12.488L28.2374 14.9084C25.9063 16.1316 24.0408 17.1106 22.6005 18.0725C21.1082 19.069 19.9589 20.1183 19.1219 21.5397C18.2877 22.9563 17.9125 24.4903 17.7325 26.317C17.5578 28.0901 17.5578 30.2709 17.5579 33.0134V33.4481C17.5578 36.1906 17.5578 38.3714 17.7325 40.1445C17.9125 41.9713 18.2877 43.5052 19.1219 44.9218C19.9589 46.3432 21.1082 47.3925 22.6005 48.389C24.0408 49.3509 25.9061 50.3298 28.2371 51.553L32.8495 53.9735C34.7488 54.9702 36.2742 55.7707 37.5874 56.3138C38.9475 56.8763 40.1896 57.2115 41.5386 57.2115C42.8876 57.2115 44.1298 56.8763 45.4898 56.3138C46.8031 55.7707 48.3284 54.9703 50.2277 53.9735L54.8398 51.5532C57.1709 50.3299 59.0364 49.351 60.4768 48.389C61.9691 47.3925 63.1184 46.3432 63.9554 44.9218C64.7895 43.5052 65.1648 41.9713 65.3448 40.1445C65.5194 38.3714 65.5194 36.1907 65.5194 33.4482V33.0134C65.5194 30.2709 65.5194 28.0901 65.3448 26.317C65.1648 24.4903 64.7895 22.9563 63.9554 21.5397C63.1184 20.1183 61.9691 19.069 60.4768 18.0725C59.0364 17.1106 57.1709 16.1316 54.8398 14.9084L50.2278 12.488C48.3284 11.4913 46.8031 10.6908 45.4898 10.1477C44.1298 9.58525 42.8876 9.25 41.5386 9.25ZM34.335 15.4874C36.3198 14.4458 37.7106 13.7178 38.8662 13.2399C39.991 12.7747 40.7812 12.5962 41.5386 12.5962C42.2961 12.5962 43.0863 12.7747 44.211 13.2399C45.3666 13.7178 46.7575 14.4459 48.7422 15.4874L53.2038 17.8287C55.6346 19.1044 57.3425 20.003 58.6185 20.8552C59.248 21.2756 59.7427 21.666 60.142 22.0585L41.5386 31.3602L22.9352 22.0585C23.3346 21.666 23.8293 21.2756 24.4588 20.8552C25.7348 20.003 27.4426 19.1044 29.8735 17.8287L34.335 15.4874ZM21.3227 24.9934C21.21 25.4705 21.1249 26.0123 21.0625 26.645C20.9059 28.2352 20.904 30.2514 20.904 33.1003V33.3612C20.904 36.2102 20.9059 38.2264 21.0625 39.8165C21.2157 41.3717 21.5068 42.3774 22.0053 43.2239C22.501 44.0657 23.2179 44.7777 24.4588 45.6064C25.7348 46.4585 27.4426 47.3572 29.8735 48.6328L34.335 50.9741C36.3198 52.0157 37.7106 52.7438 38.8662 53.2217C39.2311 53.3726 39.5608 53.4933 39.8655 53.5876V34.2648L21.3227 24.9934ZM43.2117 53.5876C43.5165 53.4933 43.8461 53.3726 44.211 53.2217C45.3666 52.7438 46.7575 52.0157 48.7422 50.9741L53.2038 48.6328C55.6346 47.3572 57.3425 46.4585 58.6185 45.6064C59.8593 44.7777 60.5763 44.0657 61.072 43.2239C61.5705 42.3774 61.8615 41.3717 62.0147 39.8165C62.1714 38.2264 62.1732 36.2102 62.1732 33.3612V33.1003C62.1732 30.2514 62.1714 28.2352 62.0147 26.645C61.9524 26.0123 61.8672 25.4705 61.7546 24.9933L43.2117 34.2648V53.5876Z" fill="#482683"/>
<path d="M13.2307 19.8461H17.3653" stroke="#482683" stroke-width="2.5" stroke-linecap="round"/>
<path d="M26.4615 13.2308H24.8076M19.8461 13.2308H13.2307" stroke="#482683" stroke-width="2.5" stroke-linecap="round"/>
<path d="M13.2307 26.4615H14.8846" stroke="#482683" stroke-width="2.5" stroke-linecap="round"/>
<path d="M18.1922 36.3846C11.9552 36.3846 8.83663 36.3846 6.89903 34.447C5.81877 33.3667 5.34077 31.9194 5.12928 29.7692M4.96143 23.1538V16.5384C4.96143 10.3014 4.96143 7.18288 6.89903 5.24528C8.83663 3.30768 11.9552 3.30768 18.1922 3.30768H21.4999C27.7369 3.30768 30.8555 3.30768 32.7931 5.24528C33.8733 6.32554 34.3513 7.77287 34.5628 9.92306" stroke="#482683" stroke-width="2.5" stroke-linecap="round"/>
</svg>
