<svg width="50" height="60" viewBox="0 0 50 60" fill="none" xmlns="http://www.w3.org/2000/svg">
<path d="M36.6203 19.5135C41.1029 21.8497 43.3443 23.0177 44.5888 25.1167C45.4639 26.5925 45.7237 28.3219 45.8008 31.0345V39.3103C45.7237 42.0229 45.4639 43.7523 44.5888 45.2281C43.3443 47.3271 41.1029 48.4952 36.6203 50.8313L32.4536 53.0028C28.7961 54.909 26.9673 55.8621 25.0001 55.8621C23.0328 55.8621 21.2041 54.909 17.5465 53.0028L13.3799 50.8314C8.89722 48.4952 6.6559 47.3271 5.41132 45.2281C4.16675 43.1291 4.16675 40.5172 4.16675 35.2934V35.0514C4.16675 29.8276 4.16675 27.2157 5.41132 25.1167C6.6559 23.0177 8.41071 22.3362 12.8933 20" stroke="#482683" stroke-width="3" stroke-linecap="round"/>
<path d="M43.75 25.8621L25 35.1724M25 35.1724L6.25 25.8621M25 35.1724V54.8276" stroke="#482683" stroke-width="3" stroke-linecap="round"/>
<g clip-path="url(#clip0_166_475)">
<path d="M32.1667 12.0956C31.0419 8.51439 27.6962 5.91669 23.7438 5.91669C18.8688 5.91669 14.9167 9.86869 14.9167 14.7437C14.9167 15.6755 15.0611 16.5735 15.3287 17.4167M21.0957 23.1667C19.8536 22.7766 18.7299 22.1193 17.7917 21.2622" stroke="#482683" stroke-width="2" stroke-linecap="round"/>
<path d="M34.0001 17.4672C32.9828 21.1116 30.1117 23.9827 26.4673 25C24.8922 25.4397 23.5417 24.073 23.5417 22.4377V16.0222C23.5417 15.2045 24.2046 14.5416 25.0223 14.5416H31.4378C33.0732 14.5416 34.4398 15.8921 34.0001 17.4672Z" stroke="#482683" stroke-width="2"/>
</g>
<defs>
<clipPath id="clip0_166_475">
<rect width="23" height="23" fill="white" transform="matrix(1 0 0 -1 13 27)"/>
</clipPath>
</defs>
</svg>
