<svg width="61" height="60" viewBox="0 0 61 60" fill="none" xmlns="http://www.w3.org/2000/svg">
<path d="M25.7456 35.75C27.0474 36.9216 27.7772 37.5784 29.0789 38.75L35.7456 31.25" stroke="#482683" stroke-width="3" stroke-linecap="round" stroke-linejoin="round"/>
<path d="M23.2456 15V12.5C23.2456 8.35786 26.6035 5 30.7456 5C34.8877 5 38.2456 8.35786 38.2456 12.5V15" stroke="#482683" stroke-width="3" stroke-linecap="round"/>
<path d="M51.3041 31.3142C49.8411 23.5113 49.1096 19.6098 46.3323 17.3049C43.5551 15 39.5856 15 31.6467 15H29.8437C21.9048 15 17.9354 15 15.1581 17.3049C12.3809 19.6098 11.6494 23.5113 10.1863 31.3142C8.12899 42.2866 7.10034 47.7727 10.0994 51.3864C13.0985 55 18.6802 55 29.8437 55H31.6467C42.8102 55 48.392 55 51.3911 51.3864C53.131 49.2898 53.5153 46.5629 53.1294 42.5" stroke="#482683" stroke-width="3" stroke-linecap="round"/>
</svg>
