<svg width="60" height="60" viewBox="0 0 60 60" fill="none" xmlns="http://www.w3.org/2000/svg">
<path d="M32.7166 53.4692L34.0075 54.2333L32.7166 53.4692ZM34.0719 51.1796L32.781 50.4155L34.0719 51.1796ZM25.928 51.1796L24.6372 51.9436L25.928 51.1796ZM27.2833 53.4692L28.5741 52.7052L27.2833 53.4692ZM3.5 26.25C3.5 27.0784 4.17157 27.75 5 27.75C5.82843 27.75 6.5 27.0784 6.5 26.25H3.5ZM7.33733 39.2095C7.0203 38.4441 6.14285 38.0807 5.37748 38.3977C4.61211 38.7147 4.24866 39.5922 4.56569 40.3576L7.33733 39.2095ZM19.4739 47.4786L19.4481 48.9784H19.4481L19.4739 47.4786ZM12.7165 46.5485L12.1424 47.9343H12.1424L12.7165 46.5485ZM54.0485 39.7835L55.4343 40.3576L54.0485 39.7835ZM40.5259 47.4786L40.5001 45.9789L40.5259 47.4786ZM47.2835 46.5485L47.8576 47.9343L47.2835 46.5485ZM49.0312 6.842L48.2475 8.12096L49.0312 6.842ZM53.158 10.9688L54.437 10.185V10.185L53.158 10.9688ZM10.9688 6.842L10.185 5.56304L10.9688 6.842ZM6.842 10.9688L5.56304 10.185L6.842 10.9688ZM23.507 48.0246L24.2611 46.728L24.2611 46.728L23.507 48.0246ZM34.0075 54.2333L35.3627 51.9436L32.781 50.4155L31.4258 52.7052L34.0075 54.2333ZM24.6372 51.9436L25.9924 54.2333L28.5741 52.7052L27.2188 50.4155L24.6372 51.9436ZM31.4258 52.7052C30.7987 53.7647 29.2012 53.7647 28.5741 52.7052L25.9924 54.2333C27.7812 57.2553 32.2187 57.2553 34.0075 54.2333L31.4258 52.7052ZM26.25 6.5H33.75V3.5H26.25V6.5ZM53.5 26.25V28.75H56.5V26.25H53.5ZM19.4998 45.9789C16.3612 45.9248 14.6519 45.7266 13.2905 45.1627L12.1424 47.9343C14.0825 48.7379 16.3099 48.9243 19.4481 48.9784L19.4998 45.9789ZM4.56569 40.3576C5.9866 43.788 8.71204 46.5134 12.1424 47.9343L13.2905 45.1627C10.5952 44.0462 8.45376 41.9048 7.33733 39.2095L4.56569 40.3576ZM53.5 28.75C53.5 31.6827 53.4992 33.807 53.3845 35.4873C53.2708 37.1542 53.0501 38.2742 52.6627 39.2095L55.4343 40.3576C55.9984 38.9958 56.2534 37.5111 56.3776 35.6916C56.5008 33.8854 56.5 31.6416 56.5 28.75H53.5ZM40.5518 48.9784C43.6901 48.9243 45.9175 48.7379 47.8576 47.9343L46.7095 45.1627C45.3481 45.7266 43.6387 45.9248 40.5001 45.9789L40.5518 48.9784ZM52.6627 39.2095C51.5462 41.9048 49.4048 44.0462 46.7095 45.1627L47.8576 47.9343C51.288 46.5134 54.0134 43.788 55.4343 40.3576L52.6627 39.2095ZM33.75 6.5C37.8708 6.5 40.8561 6.50158 43.1903 6.72352C45.5021 6.94333 47.0198 7.36866 48.2475 8.12096L49.815 5.56304C48.0368 4.47334 46.0057 3.97767 43.4742 3.73698C40.9651 3.49842 37.8127 3.5 33.75 3.5V6.5ZM56.5 26.25C56.5 22.1873 56.5016 19.0349 56.263 16.5258C56.0223 13.9943 55.5267 11.9632 54.437 10.185L51.879 11.7525C52.6313 12.9802 53.0567 14.4979 53.2765 16.8097C53.4984 19.1439 53.5 22.1292 53.5 26.25H56.5ZM48.2475 8.12096C49.7276 9.02797 50.972 10.2724 51.879 11.7525L54.437 10.185C53.2826 8.30124 51.6988 6.71742 49.815 5.56304L48.2475 8.12096ZM26.25 3.5C22.1873 3.5 19.0349 3.49842 16.5258 3.73698C13.9943 3.97767 11.9632 4.47334 10.185 5.56304L11.7525 8.12096C12.9802 7.36866 14.4979 6.94333 16.8097 6.72352C19.1439 6.50158 22.1292 6.5 26.25 6.5V3.5ZM6.5 26.25C6.5 22.1292 6.50158 19.1439 6.72352 16.8097C6.94333 14.4979 7.36866 12.9802 8.12096 11.7525L5.56304 10.185C4.47334 11.9632 3.97767 13.9943 3.73698 16.5258C3.49842 19.0349 3.5 22.1873 3.5 26.25H6.5ZM10.185 5.56304C8.30124 6.71742 6.71742 8.30124 5.56304 10.185L8.12096 11.7525C9.02797 10.2724 10.2724 9.02797 11.7525 8.12096L10.185 5.56304ZM27.2188 50.4155C26.7077 49.5519 26.2724 48.8134 25.8521 48.2367C25.4134 47.6348 24.9261 47.1147 24.2611 46.728L22.7528 49.3212C22.9321 49.4255 23.1297 49.5949 23.4277 50.0037C23.7441 50.4378 24.0972 51.0313 24.6372 51.9436L27.2188 50.4155ZM19.4481 48.9784C20.5389 48.9972 21.2546 49.011 21.806 49.0721C22.3296 49.1301 22.5785 49.2199 22.7528 49.3212L24.2611 46.728C23.5912 46.3383 22.8865 46.1734 22.1362 46.0903C21.4136 46.0103 20.5349 45.9967 19.4998 45.9789L19.4481 48.9784ZM35.3627 51.9436C35.9027 51.0313 36.2558 50.4378 36.5722 50.0037C36.8701 49.5949 37.0678 49.4255 37.2471 49.3212L35.7388 46.728C35.0738 47.1147 34.5865 47.6348 34.1478 48.2367C33.7275 48.8134 33.2922 49.5519 32.781 50.4155L35.3627 51.9436ZM40.5001 45.9789C39.465 45.9967 38.5863 46.0103 37.8637 46.0903C37.1134 46.1734 36.4087 46.3383 35.7388 46.728L37.2471 49.3212C37.4214 49.2199 37.6703 49.1301 38.1939 49.0721C38.7453 49.011 39.461 48.9972 40.5518 48.9784L40.5001 45.9789Z" fill="#482683"/>
<path d="M20 27.5H20.0225M29.9775 27.5H30M39.9775 27.5H40" stroke="#482683" stroke-width="6" stroke-linecap="round" stroke-linejoin="round"/>
</svg>
