<svg width="17" height="10" viewBox="0 0 17 10" fill="none" xmlns="http://www.w3.org/2000/svg">
<path d="M15.9969 0.352185C15.7714 0.126681 15.4655 -3.86259e-08 15.1465 -5.2568e-08C14.8275 -6.65101e-08 14.5216 0.126681 14.2961 0.352185L8.34186 6.3064L2.38764 0.352184C2.16078 0.133071 1.85693 0.0118281 1.54154 0.0145687C1.22615 0.0173093 0.924456 0.143814 0.701433 0.366837C0.478411 0.589859 0.351908 0.891554 0.349167 1.20694C0.346426 1.52233 0.467668 1.82618 0.686781 2.05304L7.49143 8.85769C7.717 9.0832 8.0229 9.20988 8.34186 9.20988C8.66082 9.20988 8.96672 9.0832 9.19229 8.85769L15.9969 2.05305C16.2224 1.82747 16.3491 1.52157 16.3491 1.20261C16.3491 0.883656 16.2224 0.577757 15.9969 0.352185Z" fill="#282626"/>
</svg>
